<mxfile host="Electron" modified="2024-06-25T18:49:35.176Z" agent="Mozilla/5.0 (Windows NT 10.0; Win64; x64) AppleWebKit/537.36 (KHTML, like Gecko) draw.io/24.2.5 Chrome/120.0.6099.109 Electron/28.1.0 Safari/537.36" etag="zORCoBEdnw523jqZLJzE" version="24.2.5" type="device">
  <diagram name="Strona-1" id="hy3zrypui5hJhZ-KmRtM">
    <mxGraphModel dx="1195" dy="697" grid="1" gridSize="10" guides="1" tooltips="1" connect="1" arrows="1" fold="1" page="1" pageScale="1" pageWidth="827" pageHeight="1169" math="0" shadow="0">
      <root>
        <mxCell id="0" />
        <mxCell id="1" parent="0" />
        <mxCell id="q7vNaTes8u4kG_fK8PNt-1" value="&lt;h1&gt;Diagram przypadków użycia&lt;/h1&gt;" style="text;html=1;align=center;verticalAlign=middle;resizable=0;points=[];autosize=1;strokeColor=none;fillColor=none;labelBackgroundColor=none;fontColor=#393C56;" vertex="1" parent="1">
          <mxGeometry x="10" y="10" width="340" height="70" as="geometry" />
        </mxCell>
        <mxCell id="q7vNaTes8u4kG_fK8PNt-12" style="rounded=0;orthogonalLoop=1;jettySize=auto;html=1;labelBackgroundColor=none;strokeColor=#E07A5F;fontColor=default;" edge="1" parent="1" source="q7vNaTes8u4kG_fK8PNt-2" target="q7vNaTes8u4kG_fK8PNt-3">
          <mxGeometry relative="1" as="geometry" />
        </mxCell>
        <mxCell id="q7vNaTes8u4kG_fK8PNt-36" style="edgeStyle=orthogonalEdgeStyle;rounded=0;orthogonalLoop=1;jettySize=auto;html=1;strokeColor=#E07A5F;fontColor=#393C56;fillColor=#F2CC8F;" edge="1" parent="1" source="q7vNaTes8u4kG_fK8PNt-2" target="q7vNaTes8u4kG_fK8PNt-18">
          <mxGeometry relative="1" as="geometry" />
        </mxCell>
        <mxCell id="q7vNaTes8u4kG_fK8PNt-37" style="rounded=0;orthogonalLoop=1;jettySize=auto;html=1;strokeColor=#E07A5F;fontColor=#393C56;fillColor=#F2CC8F;" edge="1" parent="1" source="q7vNaTes8u4kG_fK8PNt-2" target="q7vNaTes8u4kG_fK8PNt-27">
          <mxGeometry relative="1" as="geometry" />
        </mxCell>
        <mxCell id="q7vNaTes8u4kG_fK8PNt-2" value="Użytkownik" style="shape=umlActor;verticalLabelPosition=bottom;verticalAlign=top;html=1;outlineConnect=0;labelBackgroundColor=none;fillColor=#F2CC8F;strokeColor=#E07A5F;fontColor=#393C56;" vertex="1" parent="1">
          <mxGeometry x="40" y="420" width="30" height="60" as="geometry" />
        </mxCell>
        <mxCell id="q7vNaTes8u4kG_fK8PNt-3" value="Zarządzanie klientami" style="ellipse;whiteSpace=wrap;html=1;labelBackgroundColor=none;fillColor=#F2CC8F;strokeColor=#E07A5F;fontColor=#393C56;" vertex="1" parent="1">
          <mxGeometry x="210" y="170" width="120" height="60" as="geometry" />
        </mxCell>
        <mxCell id="q7vNaTes8u4kG_fK8PNt-7" value="Dodanie klienta" style="ellipse;whiteSpace=wrap;html=1;labelBackgroundColor=none;fillColor=#F2CC8F;strokeColor=#E07A5F;fontColor=#393C56;" vertex="1" parent="1">
          <mxGeometry x="354" y="90" width="120" height="60" as="geometry" />
        </mxCell>
        <mxCell id="q7vNaTes8u4kG_fK8PNt-8" value="Wyświetlanie klienta" style="ellipse;whiteSpace=wrap;html=1;labelBackgroundColor=none;fillColor=#F2CC8F;strokeColor=#E07A5F;fontColor=#393C56;" vertex="1" parent="1">
          <mxGeometry x="474" y="130" width="120" height="60" as="geometry" />
        </mxCell>
        <mxCell id="q7vNaTes8u4kG_fK8PNt-9" value="Usuwanie klienta" style="ellipse;whiteSpace=wrap;html=1;labelBackgroundColor=none;fillColor=#F2CC8F;strokeColor=#E07A5F;fontColor=#393C56;" vertex="1" parent="1">
          <mxGeometry x="350" y="250" width="120" height="60" as="geometry" />
        </mxCell>
        <mxCell id="q7vNaTes8u4kG_fK8PNt-10" value="Modfyfikowanie klienta" style="ellipse;whiteSpace=wrap;html=1;labelBackgroundColor=none;fillColor=#F2CC8F;strokeColor=#E07A5F;fontColor=#393C56;" vertex="1" parent="1">
          <mxGeometry x="474" y="210" width="120" height="60" as="geometry" />
        </mxCell>
        <mxCell id="q7vNaTes8u4kG_fK8PNt-14" value="&amp;lt;&amp;lt;extend&amp;gt;&amp;gt;" style="html=1;verticalAlign=bottom;labelBackgroundColor=none;endArrow=open;endFill=0;dashed=1;rounded=0;strokeColor=#E07A5F;fontColor=#393C56;fillColor=#F2CC8F;" edge="1" parent="1" source="q7vNaTes8u4kG_fK8PNt-7" target="q7vNaTes8u4kG_fK8PNt-3">
          <mxGeometry width="160" relative="1" as="geometry">
            <mxPoint x="130" y="130" as="sourcePoint" />
            <mxPoint x="290" y="130" as="targetPoint" />
          </mxGeometry>
        </mxCell>
        <mxCell id="q7vNaTes8u4kG_fK8PNt-15" value="&amp;lt;&amp;lt;extend&amp;gt;&amp;gt;" style="html=1;verticalAlign=bottom;labelBackgroundColor=none;endArrow=open;endFill=0;dashed=1;rounded=0;strokeColor=#E07A5F;fontColor=#393C56;fillColor=#F2CC8F;" edge="1" parent="1" source="q7vNaTes8u4kG_fK8PNt-8" target="q7vNaTes8u4kG_fK8PNt-3">
          <mxGeometry width="160" relative="1" as="geometry">
            <mxPoint x="366" y="190" as="sourcePoint" />
            <mxPoint x="324" y="210" as="targetPoint" />
          </mxGeometry>
        </mxCell>
        <mxCell id="q7vNaTes8u4kG_fK8PNt-16" value="&amp;lt;&amp;lt;extend&amp;gt;&amp;gt;" style="html=1;verticalAlign=bottom;labelBackgroundColor=none;endArrow=open;endFill=0;dashed=1;rounded=0;strokeColor=#E07A5F;fontColor=#393C56;fillColor=#F2CC8F;" edge="1" parent="1" source="q7vNaTes8u4kG_fK8PNt-10" target="q7vNaTes8u4kG_fK8PNt-3">
          <mxGeometry width="160" relative="1" as="geometry">
            <mxPoint x="484" y="191" as="sourcePoint" />
            <mxPoint x="336" y="219" as="targetPoint" />
          </mxGeometry>
        </mxCell>
        <mxCell id="q7vNaTes8u4kG_fK8PNt-17" value="&amp;lt;&amp;lt;extend&amp;gt;&amp;gt;" style="html=1;verticalAlign=bottom;labelBackgroundColor=none;endArrow=open;endFill=0;dashed=1;rounded=0;strokeColor=#E07A5F;fontColor=#393C56;fillColor=#F2CC8F;" edge="1" parent="1" source="q7vNaTes8u4kG_fK8PNt-9" target="q7vNaTes8u4kG_fK8PNt-3">
          <mxGeometry width="160" relative="1" as="geometry">
            <mxPoint x="483" y="261" as="sourcePoint" />
            <mxPoint x="337" y="239" as="targetPoint" />
          </mxGeometry>
        </mxCell>
        <mxCell id="q7vNaTes8u4kG_fK8PNt-18" value="Zarządzanie samochodami" style="ellipse;whiteSpace=wrap;html=1;labelBackgroundColor=none;fillColor=#F2CC8F;strokeColor=#E07A5F;fontColor=#393C56;" vertex="1" parent="1">
          <mxGeometry x="210" y="420" width="120" height="60" as="geometry" />
        </mxCell>
        <mxCell id="q7vNaTes8u4kG_fK8PNt-19" value="Dodanie samochodu" style="ellipse;whiteSpace=wrap;html=1;labelBackgroundColor=none;fillColor=#F2CC8F;strokeColor=#E07A5F;fontColor=#393C56;" vertex="1" parent="1">
          <mxGeometry x="354" y="340" width="120" height="60" as="geometry" />
        </mxCell>
        <mxCell id="q7vNaTes8u4kG_fK8PNt-20" value="Wyświetlanie samochodu" style="ellipse;whiteSpace=wrap;html=1;labelBackgroundColor=none;fillColor=#F2CC8F;strokeColor=#E07A5F;fontColor=#393C56;" vertex="1" parent="1">
          <mxGeometry x="474" y="380" width="120" height="60" as="geometry" />
        </mxCell>
        <mxCell id="q7vNaTes8u4kG_fK8PNt-21" value="Usuwanie samochodu" style="ellipse;whiteSpace=wrap;html=1;labelBackgroundColor=none;fillColor=#F2CC8F;strokeColor=#E07A5F;fontColor=#393C56;" vertex="1" parent="1">
          <mxGeometry x="350" y="500" width="120" height="60" as="geometry" />
        </mxCell>
        <mxCell id="q7vNaTes8u4kG_fK8PNt-22" value="Modfyfikowanie samochodu" style="ellipse;whiteSpace=wrap;html=1;labelBackgroundColor=none;fillColor=#F2CC8F;strokeColor=#E07A5F;fontColor=#393C56;" vertex="1" parent="1">
          <mxGeometry x="474" y="460" width="120" height="60" as="geometry" />
        </mxCell>
        <mxCell id="q7vNaTes8u4kG_fK8PNt-23" value="&amp;lt;&amp;lt;extend&amp;gt;&amp;gt;" style="html=1;verticalAlign=bottom;labelBackgroundColor=none;endArrow=open;endFill=0;dashed=1;rounded=0;strokeColor=#E07A5F;fontColor=#393C56;fillColor=#F2CC8F;" edge="1" parent="1" source="q7vNaTes8u4kG_fK8PNt-19" target="q7vNaTes8u4kG_fK8PNt-18">
          <mxGeometry width="160" relative="1" as="geometry">
            <mxPoint x="130" y="380" as="sourcePoint" />
            <mxPoint x="290" y="380" as="targetPoint" />
          </mxGeometry>
        </mxCell>
        <mxCell id="q7vNaTes8u4kG_fK8PNt-24" value="&amp;lt;&amp;lt;extend&amp;gt;&amp;gt;" style="html=1;verticalAlign=bottom;labelBackgroundColor=none;endArrow=open;endFill=0;dashed=1;rounded=0;strokeColor=#E07A5F;fontColor=#393C56;fillColor=#F2CC8F;" edge="1" parent="1" source="q7vNaTes8u4kG_fK8PNt-20" target="q7vNaTes8u4kG_fK8PNt-18">
          <mxGeometry width="160" relative="1" as="geometry">
            <mxPoint x="366" y="440" as="sourcePoint" />
            <mxPoint x="324" y="460" as="targetPoint" />
          </mxGeometry>
        </mxCell>
        <mxCell id="q7vNaTes8u4kG_fK8PNt-25" value="&amp;lt;&amp;lt;extend&amp;gt;&amp;gt;" style="html=1;verticalAlign=bottom;labelBackgroundColor=none;endArrow=open;endFill=0;dashed=1;rounded=0;strokeColor=#E07A5F;fontColor=#393C56;fillColor=#F2CC8F;" edge="1" parent="1" source="q7vNaTes8u4kG_fK8PNt-22" target="q7vNaTes8u4kG_fK8PNt-18">
          <mxGeometry width="160" relative="1" as="geometry">
            <mxPoint x="484" y="441" as="sourcePoint" />
            <mxPoint x="336" y="469" as="targetPoint" />
          </mxGeometry>
        </mxCell>
        <mxCell id="q7vNaTes8u4kG_fK8PNt-26" value="&amp;lt;&amp;lt;extend&amp;gt;&amp;gt;" style="html=1;verticalAlign=bottom;labelBackgroundColor=none;endArrow=open;endFill=0;dashed=1;rounded=0;strokeColor=#E07A5F;fontColor=#393C56;fillColor=#F2CC8F;" edge="1" parent="1" source="q7vNaTes8u4kG_fK8PNt-21" target="q7vNaTes8u4kG_fK8PNt-18">
          <mxGeometry width="160" relative="1" as="geometry">
            <mxPoint x="483" y="511" as="sourcePoint" />
            <mxPoint x="337" y="489" as="targetPoint" />
          </mxGeometry>
        </mxCell>
        <mxCell id="q7vNaTes8u4kG_fK8PNt-27" value="Zarządzanie zamówienia" style="ellipse;whiteSpace=wrap;html=1;labelBackgroundColor=none;fillColor=#F2CC8F;strokeColor=#E07A5F;fontColor=#393C56;" vertex="1" parent="1">
          <mxGeometry x="210" y="670" width="120" height="60" as="geometry" />
        </mxCell>
        <mxCell id="q7vNaTes8u4kG_fK8PNt-28" value="Dodanie zamówienia" style="ellipse;whiteSpace=wrap;html=1;labelBackgroundColor=none;fillColor=#F2CC8F;strokeColor=#E07A5F;fontColor=#393C56;" vertex="1" parent="1">
          <mxGeometry x="354" y="590" width="120" height="60" as="geometry" />
        </mxCell>
        <mxCell id="q7vNaTes8u4kG_fK8PNt-29" value="Wyświetlanie zamówienia" style="ellipse;whiteSpace=wrap;html=1;labelBackgroundColor=none;fillColor=#F2CC8F;strokeColor=#E07A5F;fontColor=#393C56;" vertex="1" parent="1">
          <mxGeometry x="474" y="630" width="120" height="60" as="geometry" />
        </mxCell>
        <mxCell id="q7vNaTes8u4kG_fK8PNt-30" value="Usuwanie zamówienia" style="ellipse;whiteSpace=wrap;html=1;labelBackgroundColor=none;fillColor=#F2CC8F;strokeColor=#E07A5F;fontColor=#393C56;" vertex="1" parent="1">
          <mxGeometry x="350" y="750" width="120" height="60" as="geometry" />
        </mxCell>
        <mxCell id="q7vNaTes8u4kG_fK8PNt-31" value="Modfyfikowanie zamówienia" style="ellipse;whiteSpace=wrap;html=1;labelBackgroundColor=none;fillColor=#F2CC8F;strokeColor=#E07A5F;fontColor=#393C56;" vertex="1" parent="1">
          <mxGeometry x="474" y="710" width="120" height="60" as="geometry" />
        </mxCell>
        <mxCell id="q7vNaTes8u4kG_fK8PNt-32" value="&amp;lt;&amp;lt;extend&amp;gt;&amp;gt;" style="html=1;verticalAlign=bottom;labelBackgroundColor=none;endArrow=open;endFill=0;dashed=1;rounded=0;strokeColor=#E07A5F;fontColor=#393C56;fillColor=#F2CC8F;" edge="1" parent="1" source="q7vNaTes8u4kG_fK8PNt-28" target="q7vNaTes8u4kG_fK8PNt-27">
          <mxGeometry width="160" relative="1" as="geometry">
            <mxPoint x="130" y="630" as="sourcePoint" />
            <mxPoint x="290" y="630" as="targetPoint" />
          </mxGeometry>
        </mxCell>
        <mxCell id="q7vNaTes8u4kG_fK8PNt-33" value="&amp;lt;&amp;lt;extend&amp;gt;&amp;gt;" style="html=1;verticalAlign=bottom;labelBackgroundColor=none;endArrow=open;endFill=0;dashed=1;rounded=0;strokeColor=#E07A5F;fontColor=#393C56;fillColor=#F2CC8F;" edge="1" parent="1" source="q7vNaTes8u4kG_fK8PNt-29" target="q7vNaTes8u4kG_fK8PNt-27">
          <mxGeometry width="160" relative="1" as="geometry">
            <mxPoint x="366" y="690" as="sourcePoint" />
            <mxPoint x="324" y="710" as="targetPoint" />
          </mxGeometry>
        </mxCell>
        <mxCell id="q7vNaTes8u4kG_fK8PNt-34" value="&amp;lt;&amp;lt;extend&amp;gt;&amp;gt;" style="html=1;verticalAlign=bottom;labelBackgroundColor=none;endArrow=open;endFill=0;dashed=1;rounded=0;strokeColor=#E07A5F;fontColor=#393C56;fillColor=#F2CC8F;" edge="1" parent="1" source="q7vNaTes8u4kG_fK8PNt-31" target="q7vNaTes8u4kG_fK8PNt-27">
          <mxGeometry width="160" relative="1" as="geometry">
            <mxPoint x="484" y="691" as="sourcePoint" />
            <mxPoint x="336" y="719" as="targetPoint" />
          </mxGeometry>
        </mxCell>
        <mxCell id="q7vNaTes8u4kG_fK8PNt-35" value="&amp;lt;&amp;lt;extend&amp;gt;&amp;gt;" style="html=1;verticalAlign=bottom;labelBackgroundColor=none;endArrow=open;endFill=0;dashed=1;rounded=0;strokeColor=#E07A5F;fontColor=#393C56;fillColor=#F2CC8F;" edge="1" parent="1" source="q7vNaTes8u4kG_fK8PNt-30" target="q7vNaTes8u4kG_fK8PNt-27">
          <mxGeometry width="160" relative="1" as="geometry">
            <mxPoint x="483" y="761" as="sourcePoint" />
            <mxPoint x="337" y="739" as="targetPoint" />
          </mxGeometry>
        </mxCell>
      </root>
    </mxGraphModel>
  </diagram>
</mxfile>
